<svg version="1.1" xmlns="http://www.w3.org/2000/svg" xmlns:xlink="http://www.w3.org/1999/xlink" width="1335" height="679"><defs/><g><g transform="translate(5,5) scale(1,1)"><path fill="none" stroke="#000000" d="M 5 5 L 1320 5 L 1320 664 L 5 664 L 5 5" stroke-miterlimit="10"/></g><g transform="translate(5,5) scale(1,1)"><path fill="#ffffff" stroke="none" d="M 5 5 L 5 27 L 231.29150390625 27 L 242.29150390625 16 L 242.29150390625 5 L 5 5"/></g><g transform="translate(5,5) scale(1,1)"><path fill="none" stroke="#000000" d="M 5 5 L 5 27 L 231.29150390625 27 L 242.29150390625 16 L 242.29150390625 5 L 5 5 L 5 5" stroke-miterlimit="10"/></g><g transform="translate(5,5) scale(1,1)"><g><path fill="none" stroke="none"/><text fill="#000000" stroke="none" font-family="Arial" font-size="13px" font-style="normal" font-weight="normal" text-decoration="none" x="75.97900390625" y="22.5">SequenceDiagramSignUp</text></g></g><g transform="translate(5,5) scale(1,1)"><g><path fill="none" stroke="none"/><text fill="#000000" stroke="none" font-family="Arial" font-size="13px" font-style="normal" font-weight="bold" text-decoration="none" x="10" y="22.5">interaction</text></g></g><g transform="translate(5,5) scale(1,1)"><rect fill="#C0C0C0" stroke="none" x="23" y="47" width="103" height="39" opacity="0.2"/></g><g transform="translate(5,5) scale(1,1)"><rect fill="#ffffff" stroke="none" x="16" y="40" width="103" height="39"/></g><g transform="translate(5,5) scale(1,1)"><path fill="none" stroke="#000000" d="M 16 40 L 119 40 L 119 79 L 16 79 L 16 40 Z Z" stroke-miterlimit="10"/></g><g transform="translate(5,5) scale(1,1)"><g><path fill="none" stroke="none"/><text fill="#000000" stroke="none" font-family="Arial" font-size="13px" font-style="normal" font-weight="bold" text-decoration="none" x="53.7763671875" y="59.5">User</text></g></g><g transform="translate(5,5) scale(1,1)"><path fill="none" stroke="#000000" d="M 68.5 80 L 68.5 584" stroke-miterlimit="10" stroke-dasharray="3"/></g><g transform="translate(5,5) scale(1,1)"><rect fill="#C0C0C0" stroke="none" x="207" y="47" width="142.5380859375" height="39" opacity="0.2"/></g><g transform="translate(5,5) scale(1,1)"><rect fill="#ffffff" stroke="none" x="200" y="40" width="142.5380859375" height="39"/></g><g transform="translate(5,5) scale(1,1)"><path fill="none" stroke="#000000" d="M 200 40 L 342.5380859375 40 L 342.5380859375 79 L 200 79 L 200 40 Z Z" stroke-miterlimit="10"/></g><g transform="translate(5,5) scale(1,1)"><g><path fill="none" stroke="none"/><text fill="#000000" stroke="none" font-family="Arial" font-size="13px" font-style="normal" font-weight="bold" text-decoration="none" x="214.555908203125" y="59.5">JetstreamController</text></g></g><g transform="translate(5,5) scale(1,1)"><path fill="none" stroke="#000000" d="M 272.5 80 L 272.5 504" stroke-miterlimit="10" stroke-dasharray="3"/></g><g transform="translate(5,5) scale(1,1)"><rect fill="#C0C0C0" stroke="none" x="519" y="47" width="156.95361328125" height="39" opacity="0.2"/></g><g transform="translate(5,5) scale(1,1)"><rect fill="#ffffff" stroke="none" x="512" y="40" width="156.95361328125" height="39"/></g><g transform="translate(5,5) scale(1,1)"><path fill="none" stroke="#000000" d="M 512 40 L 668.95361328125 40 L 668.95361328125 79 L 512 79 L 512 40 Z Z" stroke-miterlimit="10"/></g><g transform="translate(5,5) scale(1,1)"><g><path fill="none" stroke="none"/><text fill="#000000" stroke="none" font-family="Arial" font-size="13px" font-style="normal" font-weight="bold" text-decoration="none" x="527.615966796875" y="59.5">RegistrationController</text></g></g><g transform="translate(5,5) scale(1,1)"><path fill="none" stroke="#000000" d="M 591.5 80 L 591.5 574" stroke-miterlimit="10" stroke-dasharray="3"/></g><g transform="translate(5,5) scale(1,1)"><rect fill="#C0C0C0" stroke="none" x="847" y="47" width="130.96630859375" height="39" opacity="0.2"/></g><g transform="translate(5,5) scale(1,1)"><rect fill="#ffffff" stroke="none" x="840" y="40" width="130.96630859375" height="39"/></g><g transform="translate(5,5) scale(1,1)"><path fill="none" stroke="#000000" d="M 840 40 L 970.96630859375 40 L 970.96630859375 79 L 840 79 L 840 40 Z Z" stroke-miterlimit="10"/></g><g transform="translate(5,5) scale(1,1)"><g><path fill="none" stroke="none"/><text fill="#000000" stroke="none" font-family="Arial" font-size="13px" font-style="normal" font-weight="bold" text-decoration="none" x="854.181396484375" y="59.5">SessionController</text></g></g><g transform="translate(5,5) scale(1,1)"><path fill="none" stroke="#000000" d="M 906.5 80 L 906.5 552" stroke-miterlimit="10" stroke-dasharray="3"/></g><g transform="translate(5,5) scale(1,1)"><rect fill="#C0C0C0" stroke="none" x="1127" y="47" width="117.22998046875" height="39" opacity="0.2"/></g><g transform="translate(5,5) scale(1,1)"><rect fill="#ffffff" stroke="none" x="1120" y="40" width="117.22998046875" height="39"/></g><g transform="translate(5,5) scale(1,1)"><path fill="none" stroke="#000000" d="M 1120 40 L 1237.22998046875 40 L 1237.22998046875 79 L 1120 79 L 1120 40 Z Z" stroke-miterlimit="10"/></g><g transform="translate(5,5) scale(1,1)"><g><path fill="none" stroke="none"/><text fill="#000000" stroke="none" font-family="Arial" font-size="13px" font-style="normal" font-weight="bold" text-decoration="none" x="1133.09912109375" y="59.5">HomeController</text></g></g><g transform="translate(5,5) scale(1,1)"><path fill="none" stroke="#000000" d="M 1179.5 80 L 1179.5 600" stroke-miterlimit="10" stroke-dasharray="3"/></g><g transform="translate(5,5) scale(1,1)"><path fill="none" stroke="#000000" d="M 464 184 L 751 184 L 751 456 L 464 456 L 464 184" stroke-miterlimit="10"/></g><g transform="translate(5,5) scale(1,1)"><path fill="#ffffff" stroke="none" d="M 464 184 L 464 206 L 549.8623046875 206 L 560.8623046875 195 L 560.8623046875 184 L 464 184"/></g><g transform="translate(5,5) scale(1,1)"><path fill="none" stroke="#000000" d="M 464 184 L 464 206 L 549.8623046875 206 L 560.8623046875 195 L 560.8623046875 184 L 464 184 L 464 184" stroke-miterlimit="10"/></g><g transform="translate(5,5) scale(1,1)"><g><path fill="none" stroke="none"/><text fill="#000000" stroke="none" font-family="Arial" font-size="13px" font-style="normal" font-weight="normal" text-decoration="none" x="488.72998046875" y="201.5">Validation</text></g></g><g transform="translate(5,5) scale(1,1)"><g><path fill="none" stroke="none"/><text fill="#000000" stroke="none" font-family="Arial" font-size="13px" font-style="normal" font-weight="bold" text-decoration="none" x="469" y="201.5">alt</text></g></g><g transform="translate(5,5) scale(1,1)"><path fill="none" stroke="#000000" d="M 464 297 L 751 297" stroke-miterlimit="10" stroke-dasharray="10,3"/></g><g transform="translate(5,5) scale(1,1)"><path fill="none" stroke="#000000" d="M 68 109 L 265 109" stroke-miterlimit="10"/></g><g transform="translate(5,5) scale(1,1)"><path fill="#000000" stroke="none" d="M 254.83732514237585 113.20951775601598 L 265 109 L 254.83732514237585 104.79048224398402"/></g><g transform="translate(5,5) scale(1,1)"><path fill="none" stroke="#000000" d="M 254.83732514237585 113.20951775601598 L 265 109 L 254.83732514237585 104.79048224398402 L 254.83732514237585 113.20951775601598" stroke-miterlimit="10"/></g><g transform="translate(5,5) scale(1,1)"><g><path fill="none" stroke="none"/><text fill="#000000" stroke="none" font-family="Arial" font-size="13px" font-style="normal" font-weight="normal" text-decoration="none" x="71.5" y="105.5">1 : Navigate to regestration page</text></g></g><g transform="translate(5,5) scale(1,1)"><rect fill="#ffffff" stroke="none" x="265" y="109" width="13" height="54"/></g><g transform="translate(5,5) scale(1,1)"><path fill="none" stroke="#000000" d="M 265 109 L 278 109 L 278 163 L 265 163 L 265 109 Z Z" stroke-miterlimit="10"/></g><g transform="translate(5,5) scale(1,1)"><path fill="none" stroke="#000000" d="M 278 120 L 584 120" stroke-miterlimit="10"/></g><g transform="translate(5,5) scale(1,1)"><path fill="#000000" stroke="none" d="M 573.8373251423759 124.20951775601598 L 584 120 L 573.8373251423758 115.79048224398402"/></g><g transform="translate(5,5) scale(1,1)"><path fill="none" stroke="#000000" d="M 573.8373251423759 124.20951775601598 L 584 120 L 573.8373251423758 115.79048224398402 L 573.8373251423759 124.20951775601598" stroke-miterlimit="10"/></g><g transform="translate(5,5) scale(1,1)"><g><path fill="none" stroke="none"/><text fill="#000000" stroke="none" font-family="Arial" font-size="13px" font-style="normal" font-weight="normal" text-decoration="none" x="356.5" y="116.5">2 : Show registration form</text></g></g><g transform="translate(5,5) scale(1,1)"><rect fill="#ffffff" stroke="none" x="584" y="120" width="13" height="56"/></g><g transform="translate(5,5) scale(1,1)"><path fill="none" stroke="#000000" d="M 584 120 L 597 120 L 597 176 L 584 176 L 584 120 Z Z" stroke-miterlimit="10"/></g><g transform="translate(5,5) scale(1,1)"><path fill="none" stroke="#000000" d="M 584 171 L 68 171" stroke-miterlimit="10" stroke-dasharray="3"/></g><g transform="translate(5,5) scale(1,1)"><path fill="none" stroke="#000000" d="M 78.16267485762415 166.790482243984 L 68 171 L 78.16267485762415 175.209517756016" stroke-miterlimit="10"/></g><g transform="translate(5,5) scale(1,1)"><g><path fill="none" stroke="none"/><text fill="#000000" stroke="none" font-family="Arial" font-size="13px" font-style="normal" font-weight="normal" text-decoration="none" x="286.5" y="186.5">3 : Display registration form</text></g></g><g transform="translate(5,5) scale(1,1)"><path fill="none" stroke="#000000" d="M 68 208 L 584 208" stroke-miterlimit="10"/></g><g transform="translate(5,5) scale(1,1)"><path fill="#000000" stroke="none" d="M 573.8373251423759 212.209517756016 L 584 208 L 573.8373251423758 203.790482243984"/></g><g transform="translate(5,5) scale(1,1)"><path fill="none" stroke="#000000" d="M 573.8373251423759 212.209517756016 L 584 208 L 573.8373251423758 203.790482243984 L 573.8373251423759 212.209517756016" stroke-miterlimit="10"/></g><g transform="translate(5,5) scale(1,1)"><g><path fill="none" stroke="none"/><text fill="#000000" stroke="none" font-family="Arial" font-size="13px" font-style="normal" font-weight="normal" text-decoration="none" x="199.5" y="226.5">4 : Submit Registration form with user data</text></g></g><g transform="translate(5,5) scale(1,1)"><rect fill="#ffffff" stroke="none" x="584" y="208" width="13" height="272"/></g><g transform="translate(5,5) scale(1,1)"><path fill="none" stroke="#000000" d="M 584 208 L 597 208 L 597 480 L 584 480 L 584 208 Z Z" stroke-miterlimit="10"/></g><g transform="translate(5,5) scale(1,1)"><path fill="none" stroke="#000000" d="M 597 232 L 627 232 L 627 252 L 604 252" stroke-miterlimit="10"/></g><g transform="translate(5,5) scale(1,1)"><path fill="#000000" stroke="none" d="M 614.1626748576241 247.790482243984 L 604 252 L 614.1626748576241 256.209517756016"/></g><g transform="translate(5,5) scale(1,1)"><path fill="none" stroke="#000000" d="M 614.1626748576241 247.790482243984 L 604 252 L 614.1626748576241 256.209517756016 L 614.1626748576241 247.790482243984" stroke-miterlimit="10"/></g><g transform="translate(5,5) scale(1,1)"><g><path fill="none" stroke="none"/><text fill="#000000" stroke="none" font-family="Arial" font-size="13px" font-style="normal" font-weight="normal" text-decoration="none" x="542.5" y="244.5">5 : Validate user data(ValidationService)</text></g></g><g transform="translate(5,5) scale(1,1)"><rect fill="#ffffff" stroke="none" x="591" y="252" width="13" height="76"/></g><g transform="translate(5,5) scale(1,1)"><path fill="none" stroke="#000000" d="M 591 252 L 604 252 L 604 328 L 591 328 L 591 252 Z Z" stroke-miterlimit="10"/></g><g transform="translate(5,5) scale(1,1)"><path fill="none" stroke="#000000" d="M 591 265 L 68 265" stroke-miterlimit="10" stroke-dasharray="3"/></g><g transform="translate(5,5) scale(1,1)"><path fill="none" stroke="#000000" d="M 78.16267485762415 260.790482243984 L 68 265 L 78.16267485762415 269.209517756016" stroke-miterlimit="10"/></g><g transform="translate(5,5) scale(1,1)"><g><path fill="none" stroke="none"/><text fill="#000000" stroke="none" font-family="Arial" font-size="13px" font-style="normal" font-weight="normal" text-decoration="none" x="236.5" y="281.5">6 : Return error if validation fails</text></g></g><g transform="translate(5,5) scale(1,1)"><path fill="none" stroke="#000000" d="M 604 320 L 634 320 L 634 340 L 604 340" stroke-miterlimit="10"/></g><g transform="translate(5,5) scale(1,1)"><path fill="#000000" stroke="none" d="M 614.1626748576241 335.790482243984 L 604 340 L 614.1626748576241 344.209517756016"/></g><g transform="translate(5,5) scale(1,1)"><path fill="none" stroke="#000000" d="M 614.1626748576241 335.790482243984 L 604 340 L 614.1626748576241 344.209517756016 L 614.1626748576241 335.790482243984" stroke-miterlimit="10"/></g><g transform="translate(5,5) scale(1,1)"><g><path fill="none" stroke="none"/><text fill="#000000" stroke="none" font-family="Arial" font-size="13px" font-style="normal" font-weight="normal" text-decoration="none" x="432.5" y="339.5">7 : Create new user if validation passes(RegistrationService)</text></g></g><g transform="translate(5,5) scale(1,1)"><rect fill="#ffffff" stroke="none" x="591" y="340" width="13" height="60"/></g><g transform="translate(5,5) scale(1,1)"><path fill="none" stroke="#000000" d="M 591 340 L 604 340 L 604 400 L 591 400 L 591 340 Z Z" stroke-miterlimit="10"/></g><g transform="translate(5,5) scale(1,1)"><path fill="none" stroke="#000000" d="M 604 361 L 899 361" stroke-miterlimit="10"/></g><g transform="translate(5,5) scale(1,1)"><path fill="#000000" stroke="none" d="M 888.8373251423759 365.209517756016 L 899 361 L 888.8373251423758 356.790482243984"/></g><g transform="translate(5,5) scale(1,1)"><path fill="none" stroke="#000000" d="M 888.8373251423759 365.209517756016 L 899 361 L 888.8373251423758 356.790482243984 L 888.8373251423759 365.209517756016" stroke-miterlimit="10"/></g><g transform="translate(5,5) scale(1,1)"><g><path fill="none" stroke="none"/><text fill="#000000" stroke="none" font-family="Arial" font-size="13px" font-style="normal" font-weight="normal" text-decoration="none" x="709.5" y="357.5">8 : Log user in</text></g></g><g transform="translate(5,5) scale(1,1)"><rect fill="#ffffff" stroke="none" x="899" y="361" width="13" height="143"/></g><g transform="translate(5,5) scale(1,1)"><path fill="none" stroke="#000000" d="M 899 361 L 912 361 L 912 504 L 899 504 L 899 361 Z Z" stroke-miterlimit="10"/></g><g transform="translate(5,5) scale(1,1)"><path fill="none" stroke="#000000" d="M 591 369 L 68 369" stroke-miterlimit="10" stroke-dasharray="3"/></g><g transform="translate(5,5) scale(1,1)"><path fill="none" stroke="#000000" d="M 78.16267485762415 364.790482243984 L 68 369 L 78.16267485762415 373.209517756016" stroke-miterlimit="10"/></g><g transform="translate(5,5) scale(1,1)"><g><path fill="none" stroke="none"/><text fill="#000000" stroke="none" font-family="Arial" font-size="13px" font-style="normal" font-weight="normal" text-decoration="none" x="235.5" y="385.5">9 : Create new user in database</text></g></g><g transform="translate(5,5) scale(1,1)"><path fill="none" stroke="#000000" d="M 899 472 L 68 472" stroke-miterlimit="10" stroke-dasharray="3"/></g><g transform="translate(5,5) scale(1,1)"><path fill="none" stroke="#000000" d="M 78.16267485762415 467.790482243984 L 68 472 L 78.16267485762415 476.209517756016" stroke-miterlimit="10"/></g><g transform="translate(5,5) scale(1,1)"><g><path fill="none" stroke="none"/><text fill="#000000" stroke="none" font-family="Arial" font-size="13px" font-style="normal" font-weight="normal" text-decoration="none" x="437.5" y="488.5">10 : Log user in</text></g></g><g transform="translate(5,5) scale(1,1)"><path fill="none" stroke="#000000" d="M 68 508 L 1172 508" stroke-miterlimit="10"/></g><g transform="translate(5,5) scale(1,1)"><path fill="#000000" stroke="none" d="M 1161.837325142376 512.209517756016 L 1172 508 L 1161.837325142376 503.790482243984"/></g><g transform="translate(5,5) scale(1,1)"><path fill="none" stroke="#000000" d="M 1161.837325142376 512.209517756016 L 1172 508 L 1161.837325142376 503.790482243984 L 1161.837325142376 512.209517756016" stroke-miterlimit="10"/></g><g transform="translate(5,5) scale(1,1)"><g><path fill="none" stroke="none"/><text fill="#000000" stroke="none" font-family="Arial" font-size="13px" font-style="normal" font-weight="normal" text-decoration="none" x="540.5" y="504.5">11 : Navigate to home page</text></g></g><g transform="translate(5,5) scale(1,1)"><rect fill="#ffffff" stroke="none" x="1172" y="508" width="13" height="55"/></g><g transform="translate(5,5) scale(1,1)"><path fill="none" stroke="#000000" d="M 1172 508 L 1185 508 L 1185 563 L 1172 563 L 1172 508 Z Z" stroke-miterlimit="10"/></g><g transform="translate(5,5) scale(1,1)"><path fill="none" stroke="#000000" d="M 1185 512 L 1215 512 L 1215 532 L 1192 532" stroke-miterlimit="10"/></g><g transform="translate(5,5) scale(1,1)"><path fill="#000000" stroke="none" d="M 1202.162674857624 527.790482243984 L 1192 532 L 1202.162674857624 536.209517756016"/></g><g transform="translate(5,5) scale(1,1)"><path fill="none" stroke="#000000" d="M 1202.162674857624 527.790482243984 L 1192 532 L 1202.162674857624 536.209517756016 L 1202.162674857624 527.790482243984" stroke-miterlimit="10"/></g><g transform="translate(5,5) scale(1,1)"><g><path fill="none" stroke="none"/><text fill="#000000" stroke="none" font-family="Arial" font-size="13px" font-style="normal" font-weight="normal" text-decoration="none" x="1167.5" y="527.5">12 : Load user data</text></g></g><g transform="translate(5,5) scale(1,1)"><rect fill="#ffffff" stroke="none" x="1179" y="532" width="13" height="28"/></g><g transform="translate(5,5) scale(1,1)"><path fill="none" stroke="#000000" d="M 1179 532 L 1192 532 L 1192 560 L 1179 560 L 1179 532 Z Z" stroke-miterlimit="10"/></g><g transform="translate(5,5) scale(1,1)"><path fill="none" stroke="#000000" d="M 1179 547 L 68 547" stroke-miterlimit="10" stroke-dasharray="3"/></g><g transform="translate(5,5) scale(1,1)"><path fill="none" stroke="#000000" d="M 78.16267485762415 542.790482243984 L 68 547 L 78.16267485762415 551.209517756016" stroke-miterlimit="10"/></g><g transform="translate(5,5) scale(1,1)"><g><path fill="none" stroke="none"/><text fill="#000000" stroke="none" font-family="Arial" font-size="13px" font-style="normal" font-weight="normal" text-decoration="none" x="553.5" y="563.5">13 : Display home page</text></g></g></g></svg>